<?xml version="1.0" standalone="no"?>
<!DOCTYPE svg PUBLIC "-//W3C//DTD SVG 20010904//EN"
 "http://www.w3.org/TR/2001/REC-SVG-20010904/DTD/svg10.dtd">
<svg version="1.0" xmlns="http://www.w3.org/2000/svg"
 width="260.000000pt" height="260.000000pt" viewBox="0 0 260.000000 260.000000"
 preserveAspectRatio="xMidYMid meet">
<metadata>
Created by potrace 1.11, written by Peter Selinger 2001-2013
</metadata>
<g transform="translate(0.000000,260.000000) scale(0.100000,-0.100000)"
fill="#000000" stroke="none">
<path d="M1235 2539 c-178 -40 -368 -180 -445 -327 -11 -20 -24 -71 -30 -112
-6 -41 -13 -83 -16 -92 -3 -9 2 -31 10 -47 21 -40 21 -62 0 -54 -12 4 -15 2
-12 -8 3 -8 10 -13 16 -12 5 1 13 -14 17 -34 13 -73 50 -98 59 -40 17 119 29
175 47 208 10 21 19 49 19 61 0 27 25 113 42 145 6 12 29 35 51 50 l40 28 181
0 c147 0 191 -3 233 -17 29 -10 72 -18 95 -17 72 2 237 -65 265 -108 14 -21
15 -55 11 -244 -5 -189 -3 -221 9 -226 18 -7 29 9 44 61 6 22 24 52 41 68 23
22 29 34 24 52 -5 19 0 29 20 45 19 15 24 24 17 33 -6 8 -7 22 -2 33 23 58
-11 227 -64 317 -73 124 -217 199 -446 233 -115 17 -166 18 -226 4z"/>
<path d="M985 1966 c-54 -16 -75 -25 -75 -35 0 -5 10 -11 23 -13 14 -2 22 -10
22 -23 0 -27 48 -50 74 -35 14 7 27 7 44 -1 26 -12 67 2 67 21 0 14 28 12 32
-2 3 -8 16 -6 44 8 49 24 54 55 8 64 -17 4 -37 11 -45 16 -18 12 -156 12 -194
0z m95 -56 c0 -5 -10 -10 -22 -10 -19 0 -20 2 -8 10 19 13 30 13 30 0z"/>
<path d="M1424 1926 c-18 -14 -18 -15 11 -46 24 -25 35 -29 57 -25 22 5 30 2
35 -12 10 -28 22 -31 61 -20 27 9 36 9 40 -1 5 -15 58 -16 67 -2 4 6 1 18 -6
26 -10 13 -8 13 14 5 29 -11 60 -5 54 12 -5 17 -69 47 -100 47 -15 0 -44 7
-64 15 -45 19 -143 20 -169 1z"/>
<path d="M1920 1799 c0 -5 5 -7 10 -4 6 3 10 8 10 11 0 2 -4 4 -10 4 -5 0 -10
-5 -10 -11z"/>
<path d="M1831 1646 c-7 -8 -9 -21 -5 -27 5 -9 10 -5 16 11 10 28 5 36 -11 16z"/>
<path d="M1182 1628 c5 -15 57 -18 61 -3 1 6 -13 11 -32 13 -24 3 -32 0 -29
-10z"/>
<path d="M1383 1623 c-24 -9 -13 -23 18 -23 20 0 29 4 27 13 -5 13 -26 18 -45
10z"/>
<path d="M1080 1481 c0 -12 34 -17 78 -12 53 5 36 21 -23 21 -30 0 -55 -4 -55
-9z"/>
<path d="M1392 1459 c5 -16 78 -25 78 -10 0 6 -11 11 -24 11 -13 0 -32 3 -42
7 -12 4 -15 2 -12 -8z"/>
<path d="M1210 1390 c20 -13 123 -13 115 0 -3 6 -34 10 -68 10 -44 0 -58 -3
-47 -10z"/>
<path d="M980 1305 c0 -8 4 -15 10 -15 5 0 7 7 4 15 -4 8 -8 15 -10 15 -2 0
-4 -7 -4 -15z"/>
<path d="M1715 1300 c-3 -5 -3 -15 0 -20 11 -17 7 -132 -4 -143 -6 -6 -11 -25
-11 -43 0 -18 -6 -34 -12 -37 -7 -2 -10 -8 -5 -12 4 -5 13 -3 19 3 7 7 20 12
30 12 13 0 18 8 18 28 0 20 8 32 31 45 34 19 59 22 59 7 0 -5 9 -10 19 -10 26
0 29 -7 37 -76 3 -33 9 -68 14 -79 5 -11 14 -54 20 -95 7 -41 14 -90 17 -107
9 -59 22 -35 19 35 -4 66 -3 69 25 88 16 10 31 26 34 35 3 10 20 19 38 21 18
3 39 7 47 9 13 3 15 -11 15 -86 l0 -91 20 31 c11 16 29 47 40 68 12 23 27 37
40 38 11 0 14 3 8 6 -20 8 -15 37 8 51 12 8 18 9 14 3 -10 -17 20 -24 44 -11
26 13 27 27 4 33 -17 4 -17 5 0 6 18 1 25 21 7 21 -5 0 -10 6 -10 14 0 7 -10
16 -22 19 -13 3 -59 19 -103 37 -175 69 -299 110 -329 110 -12 0 -44 23 -73
50 -29 29 -54 46 -58 40z m260 -364 c-9 -44 -17 -46 -32 -7 -8 24 -8 32 5 45
23 22 35 5 27 -38z"/>
<path d="M647 1230 c-48 -17 -94 -30 -102 -30 -8 0 -24 -9 -35 -20 -11 -11
-30 -20 -42 -20 -39 0 -68 -12 -68 -26 0 -17 -26 -18 -34 -1 -3 8 -8 7 -16 -5
-6 -10 -21 -18 -32 -18 -12 0 -18 -3 -14 -7 12 -13 76 -3 113 18 22 13 45 18
60 14 16 -4 25 -1 29 10 4 8 13 15 20 15 12 0 12 -4 4 -20 -12 -22 -6 -40 13
-40 7 0 24 -11 38 -23 24 -22 25 -27 19 -83 -4 -32 -5 -63 -2 -68 5 -10 34 62
51 130 6 23 18 47 26 54 8 7 15 21 15 31 0 10 8 23 18 28 9 6 13 11 7 11 -5 0
5 13 23 29 64 59 38 64 -91 21z m-110 -56 c-3 -3 -12 -4 -19 -1 -8 3 -5 6 6 6
11 1 17 -2 13 -5z"/>
<path d="M825 1240 c-3 -5 -3 -10 1 -10 4 0 0 -8 -9 -18 -19 -20 -13 -34 9
-25 18 7 17 -7 -2 -32 -13 -17 -16 -18 -24 -5 -5 8 -10 11 -10 5 0 -13 20 -43
20 -30 0 6 4 3 10 -5 5 -8 5 -21 0 -29 -4 -8 -4 -22 0 -30 5 -9 11 -24 14 -33
9 -31 26 -19 28 20 1 45 1 54 -8 117 -4 28 -7 58 -8 68 0 19 -11 23 -21 7z"/>
<path d="M1120 1224 c0 -5 14 -18 30 -29 16 -11 30 -25 30 -31 0 -6 11 -16 25
-22 34 -16 105 -16 105 0 0 6 7 20 17 30 22 25 13 31 -65 39 -38 4 -85 10
-105 14 -20 4 -37 3 -37 -1z"/>
<path d="M1820 1110 c0 -5 5 -10 10 -10 6 0 10 5 10 10 0 6 -4 10 -10 10 -5 0
-10 -4 -10 -10z"/>
<path d="M288 1083 c7 -3 16 -2 19 1 4 3 -2 6 -13 5 -11 0 -14 -3 -6 -6z"/>
<path d="M190 1070 c0 -5 4 -10 9 -10 6 0 13 5 16 10 3 6 -1 10 -9 10 -9 0
-16 -4 -16 -10z"/>
<path d="M66 1041 c-4 -7 -5 -15 -2 -18 9 -9 19 4 14 18 -4 11 -6 11 -12 0z"/>
<path d="M128 1038 c5 -5 16 -8 23 -6 8 3 3 7 -10 11 -17 4 -21 3 -13 -5z"/>
<path d="M0 1019 c0 -5 5 -7 10 -4 5 3 10 8 10 11 0 2 -4 4 -10 4 -5 0 -10 -5
-10 -11z"/>
<path d="M1270 850 c0 -5 5 -10 11 -10 5 0 7 5 4 10 -3 6 -8 10 -11 10 -2 0
-4 -4 -4 -10z"/>
<path d="M1126 834 c-9 -22 -8 -24 9 -24 8 0 15 9 15 20 0 24 -15 27 -24 4z"/>
<path d="M538 786 c-10 -10 -18 -27 -18 -39 -1 -12 -7 -44 -14 -72 -7 -27 -11
-55 -9 -61 7 -19 212 -99 223 -87 10 10 -36 34 -105 54 -95 29 -107 36 -96 57
16 30 43 131 39 148 -3 17 -4 17 -20 0z"/>
<path d="M1350 769 c0 -5 5 -7 10 -4 6 3 10 8 10 11 0 2 -4 4 -10 4 -5 0 -10
-5 -10 -11z"/>
<path d="M1281 733 c0 -4 4 -17 9 -28 8 -19 9 -19 9 2 1 12 -3 25 -9 28 -5 3
-10 3 -9 -2z"/>
<path d="M0 341 l0 -341 554 0 554 0 -5 43 c-5 39 -3 44 21 55 14 6 26 19 26
28 0 13 -7 16 -35 11 -41 -7 -47 8 -10 25 14 6 25 20 25 31 0 17 -5 19 -34 14
-29 -5 -34 -3 -29 10 5 13 2 15 -11 10 -14 -6 -16 -3 -11 14 6 19 4 20 -27 14
-18 -5 -52 -7 -75 -6 -24 0 -43 -3 -43 -9 0 -10 13 -14 43 -11 9 1 17 -2 17
-8 0 -17 -38 -23 -62 -9 -13 7 -29 11 -36 9 -8 -1 -19 5 -26 15 -10 13 -17 14
-31 7 -12 -7 -14 -13 -6 -17 19 -12 12 -26 -12 -26 -28 0 -52 38 -43 68 6 19
4 19 -31 11 -53 -12 -55 -12 -48 11 5 14 2 20 -9 20 -18 0 -23 -55 -6 -65 6
-3 10 -10 10 -16 0 -5 -4 -9 -10 -9 -5 0 -10 7 -10 16 0 11 -6 14 -20 9 -11
-3 -27 -2 -37 3 -11 7 -21 6 -31 -4 -22 -22 -42 -17 -42 11 0 14 0 28 0 33 0
4 4 7 10 7 5 0 15 6 21 12 10 10 8 13 -14 13 -28 0 -47 24 -47 59 0 12 -3 20
-7 20 -32 -5 -49 32 -21 45 8 3 6 5 -3 3 -20 -3 -60 45 -84 103 -10 25 -23 51
-28 58 -12 15 -49 16 -65 0 -17 -17 -15 -83 3 -98 8 -7 15 -23 15 -36 0 -14 6
-33 13 -45 10 -17 9 -22 -7 -35 -28 -20 -73 -17 -113 7 -24 15 -32 26 -28 39
4 12 -10 34 -44 70 -27 28 -52 66 -55 82 -3 16 -17 43 -31 60 l-25 30 0 -341z
m608 -146 c-3 -3 -13 -2 -22 1 -14 5 -15 9 -4 15 13 8 36 -6 26 -16z"/>
<path d="M2190 613 c-7 -27 -17 -53 -22 -59 -4 -6 -10 -24 -11 -40 -2 -16 -20
-70 -40 -120 -21 -50 -37 -97 -37 -103 0 -6 -4 -11 -9 -11 -5 0 -12 -13 -16
-28 -3 -16 -19 -43 -36 -62 -17 -18 -35 -44 -40 -57 -9 -24 -31 -33 -27 -10 4
18 -50 21 -68 3 -20 -20 -34 -20 -62 0 -13 9 -32 14 -43 11 -10 -3 -19 -2 -19
2 0 3 -18 6 -40 6 -36 0 -45 -5 -41 -28 0 -4 -17 -7 -39 -7 -28 0 -40 -4 -40
-14 0 -9 -7 -12 -20 -9 -21 5 -28 -11 -10 -22 6 -3 10 -15 10 -26 0 -10 7 -19
15 -19 8 0 15 -4 15 -10 0 -7 172 -10 495 -10 l495 0 0 49 c0 37 -4 50 -17 56
-17 6 -17 7 0 19 10 8 17 26 17 44 0 28 -4 32 -37 38 -44 8 -88 48 -70 62 7 5
33 17 60 27 38 14 47 22 47 42 0 22 -3 24 -30 18 -38 -8 -55 1 -36 21 8 8 20
14 27 14 18 0 38 32 39 62 0 26 -2 27 -25 16 -14 -6 -25 -15 -25 -19 0 -4 -7
-10 -16 -13 -18 -7 -14 0 33 66 49 68 40 87 -17 37 -25 -22 -58 -50 -74 -61
l-29 -21 7 29 c8 33 8 91 0 117 -4 12 -16 17 -40 17 -28 0 -38 -6 -59 -37 -21
-33 -70 -153 -95 -235 -10 -32 -59 -118 -68 -118 -4 0 -27 -18 -51 -40 -37
-33 -71 -51 -71 -37 0 7 75 82 80 80 3 -1 6 6 7 15 3 37 23 109 37 137 22 44
45 140 39 163 -2 11 0 23 6 26 18 12 -7 86 -29 86 -4 0 -13 -21 -20 -47z"/>
<path d="M1046 501 c-19 -41 -16 -61 12 -61 11 0 13 -3 5 -8 -22 -14 -19 -45
6 -58 23 -12 23 -12 2 -19 -31 -9 -28 -45 4 -45 32 0 32 -16 1 -27 -19 -7 -22
-12 -15 -30 7 -19 12 -21 31 -14 13 5 23 16 23 25 0 10 8 22 18 27 25 14 22
43 -3 36 -29 -8 -35 11 -11 37 28 29 27 40 -4 32 -29 -7 -33 9 -10 40 20 26
19 34 -5 34 -25 0 -26 25 -3 39 20 11 17 16 -12 25 -16 4 -24 -2 -39 -33z"/>
<path d="M2019 522 c-13 -10 -63 -31 -111 -46 -48 -14 -90 -31 -94 -37 -8 -14
35 -5 131 26 39 12 82 25 98 29 30 7 34 18 13 35 -10 8 -19 7 -37 -7z"/>
<path d="M1150 514 c0 -8 5 -12 10 -9 6 4 8 11 5 16 -9 14 -15 11 -15 -7z"/>
<path d="M1170 439 c0 -5 5 -7 10 -4 6 3 10 8 10 11 0 2 -4 4 -10 4 -5 0 -10
-5 -10 -11z"/>
<path d="M1413 424 c-3 -8 -1 -20 6 -27 8 -8 11 -4 11 16 0 30 -7 35 -17 11z"/>
<path d="M1180 369 c0 -5 5 -7 10 -4 6 3 10 8 10 11 0 2 -4 4 -10 4 -5 0 -10
-5 -10 -11z"/>
<path d="M1404 356 c-6 -17 2 -36 17 -36 12 0 12 37 -1 45 -6 3 -13 -1 -16 -9z"/>
<path d="M785 321 c-3 -5 -1 -12 5 -16 5 -3 10 1 10 9 0 18 -6 21 -15 7z"/>
<path d="M705 300 c3 -5 8 -10 11 -10 2 0 4 5 4 10 0 6 -5 10 -11 10 -5 0 -7
-4 -4 -10z"/>
<path d="M1265 290 c-3 -5 -1 -10 4 -10 6 0 11 5 11 10 0 6 -2 10 -4 10 -3 0
-8 -4 -11 -10z"/>
<path d="M1383 284 c-9 -23 11 -38 26 -20 13 16 7 36 -10 36 -5 0 -12 -7 -16
-16z"/>
<path d="M525 270 c3 -5 10 -10 16 -10 5 0 9 5 9 10 0 6 -7 10 -16 10 -8 0
-12 -4 -9 -10z"/>
<path d="M1133 245 c-3 -9 -3 -18 0 -22 10 -10 37 6 37 22 0 20 -29 20 -37 0z"/>
<path d="M1215 230 c-3 -5 -1 -10 4 -10 6 0 11 5 11 10 0 6 -2 10 -4 10 -3 0
-8 -4 -11 -10z"/>
<path d="M1280 220 c0 -5 5 -10 10 -10 6 0 10 5 10 10 0 6 -4 10 -10 10 -5 0
-10 -4 -10 -10z"/>
<path d="M1357 224 c-8 -8 1 -24 14 -24 5 0 9 7 9 15 0 15 -12 20 -23 9z"/>
<path d="M1162 188 c-7 -7 -12 -18 -12 -25 0 -18 29 -16 37 3 8 21 -10 37 -25
22z"/>
<path d="M1411 181 c-35 -9 -51 -39 -28 -52 9 -6 17 -16 17 -24 0 -17 26 -9
34 10 3 9 0 12 -10 8 -15 -6 -20 12 -5 21 5 3 11 15 14 26 3 11 4 20 4 19 -1
-1 -13 -4 -26 -8z"/>
<path d="M1317 163 c-4 -3 -7 -11 -7 -17 0 -6 5 -5 12 2 6 6 9 14 7 17 -3 3
-9 2 -12 -2z"/>
<path d="M1177 113 c-13 -12 -7 -23 13 -23 11 0 20 7 20 15 0 15 -21 21 -33 8z"/>
<path d="M1260 100 c0 -5 5 -10 10 -10 6 0 10 5 10 10 0 6 -4 10 -10 10 -5 0
-10 -4 -10 -10z"/>
<path d="M1337 104 c-13 -13 -7 -24 14 -24 11 0 19 5 17 12 -5 14 -22 21 -31
12z"/>
<path d="M1495 84 c-18 -19 -20 -44 -2 -44 7 0 20 -9 30 -20 9 -11 22 -20 28
-20 8 0 7 5 -2 16 -10 13 -10 17 0 23 10 7 10 12 0 29 -18 29 -35 34 -54 16z"/>
<path d="M1143 73 c-14 -5 -18 -43 -5 -43 12 0 32 23 32 37 0 13 -6 15 -27 6z"/>
<path d="M1392 60 c0 -14 2 -19 5 -12 2 6 2 18 0 25 -3 6 -5 1 -5 -13z"/>
<path d="M1207 54 c-14 -14 -7 -35 11 -32 9 2 17 10 17 17 0 16 -18 25 -28 15z"/>
<path d="M1416 51 c-3 -5 1 -11 9 -14 9 -4 12 -1 8 9 -6 16 -10 17 -17 5z"/>
<path d="M1295 39 c-4 -6 -5 -13 -2 -16 7 -7 27 6 27 18 0 12 -17 12 -25 -2z"/>
<path d="M1376 15 c-4 -11 2 -15 21 -15 21 0 24 2 13 15 -16 19 -26 19 -34 0z"/>
</g>
</svg>
