<?xml version="1.0" standalone="no"?>
<!DOCTYPE svg PUBLIC "-//W3C//DTD SVG 20010904//EN"
 "http://www.w3.org/TR/2001/REC-SVG-20010904/DTD/svg10.dtd">
<svg version="1.0" xmlns="http://www.w3.org/2000/svg"
 width="260.000000pt" height="260.000000pt" viewBox="0 0 260.000000 260.000000"
 preserveAspectRatio="xMidYMid meet">
<metadata>
Created by potrace 1.11, written by Peter Selinger 2001-2013
</metadata>
<g transform="translate(0.000000,260.000000) scale(0.100000,-0.100000)"
fill="#000000" stroke="none">
<path d="M1310 2428 c-25 -11 -46 -25 -48 -29 -2 -5 -12 -9 -22 -9 -22 0 -50
-41 -50 -73 0 -13 10 -35 23 -49 28 -33 150 -98 182 -98 37 0 75 18 75 35 0
17 18 52 38 73 7 8 10 24 7 36 -2 11 -2 15 1 8 7 -15 52 18 68 51 7 12 22 23
34 25 30 5 28 22 -3 22 -15 0 -38 6 -53 14 -45 22 -198 19 -252 -6z"/>
<path d="M1685 2400 c3 -5 12 -10 20 -10 8 0 17 5 20 10 4 6 -5 10 -20 10 -15
0 -24 -4 -20 -10z"/>
<path d="M1790 2380 c0 -5 7 -10 16 -10 8 0 12 5 9 10 -3 6 -10 10 -16 10 -5
0 -9 -4 -9 -10z"/>
<path d="M1875 2350 c3 -5 11 -10 16 -10 6 0 7 5 4 10 -3 6 -11 10 -16 10 -6
0 -7 -4 -4 -10z"/>
<path d="M1465 2160 c-8 -14 21 -24 43 -15 16 7 15 8 -3 15 -27 12 -33 12 -40
0z"/>
<path d="M1570 2120 c0 -5 7 -10 16 -10 8 0 12 5 9 10 -3 6 -10 10 -16 10 -5
0 -9 -4 -9 -10z"/>
<path d="M555 2091 c-3 -6 9 -24 28 -41 60 -52 62 -74 62 -555 0 -420 -1 -431
-22 -477 -12 -26 -31 -53 -42 -60 -41 -25 -24 -37 49 -34 39 2 73 6 76 9 7 6
6 1139 0 1145 -2 2 -23 5 -47 7 -24 3 -56 7 -71 10 -14 4 -29 1 -33 -4z"/>
<path d="M855 2089 c-33 -5 -66 -11 -72 -14 -10 -3 -13 -128 -13 -575 l0 -570
28 -1 c15 -1 51 -3 80 -4 56 -4 65 6 29 30 -24 16 -43 47 -58 99 -5 16 -9 114
-9 219 -1 148 1 192 12 198 7 5 95 9 194 9 213 0 194 14 194 -145 0 -212 -29
-344 -84 -380 -44 -29 -31 -37 50 -31 42 3 79 8 82 10 7 8 4 1125 -3 1136 -3
6 -21 10 -38 10 -18 0 -48 4 -67 10 -51 15 -58 -3 -17 -44 53 -53 76 -158 77
-353 0 -80 -3 -105 -16 -118 -13 -13 -43 -15 -188 -15 -95 1 -178 5 -185 9
-10 7 -12 52 -9 202 4 213 8 232 68 283 27 22 34 49 12 45 -4 -1 -34 -5 -67
-10z"/>
<path d="M1430 2086 l-65 -11 -5 -565 c-4 -484 -3 -567 9 -578 18 -14 157 -17
166 -2 3 5 -3 20 -15 32 -11 13 -23 33 -26 45 -5 20 19 122 36 148 3 6 14 36
25 68 23 71 31 75 145 75 88 0 130 -14 130 -43 0 -8 6 -29 14 -47 25 -59 46
-132 52 -181 5 -38 3 -51 -11 -67 -28 -31 -8 -44 54 -35 55 7 57 10 40 52 -13
31 -239 692 -271 791 -11 34 -23 62 -26 63 -4 0 -14 2 -22 4 -44 11 -126 22
-132 18 -17 -9 -7 -23 16 -23 30 0 113 -78 122 -115 8 -32 -24 -136 -43 -143
-7 -2 -18 8 -24 22 -10 22 -9 29 5 45 22 24 11 44 -20 38 -23 -4 -23 -2 -17
36 7 46 -11 67 -57 67 -39 0 -60 -29 -60 -81 0 -25 -6 -54 -14 -65 -14 -18
-15 -18 -21 8 -9 34 10 281 25 330 6 21 26 54 45 74 30 32 38 56 17 53 -4 -1
-36 -6 -72 -13z m60 -492 c0 -8 -4 -12 -10 -9 -5 3 -10 10 -10 16 0 5 5 9 10
9 6 0 10 -7 10 -16z m227 -16 c6 -7 13 -24 16 -38 3 -14 15 -53 28 -86 31 -85
26 -92 -63 -90 -88 1 -91 6 -53 109 47 129 50 133 72 105z m-186 -42 c85 8 89
3 53 -91 -14 -39 -28 -81 -31 -95 -3 -14 -9 -29 -13 -35 -4 -5 -17 -37 -28
-70 -48 -138 -58 -160 -75 -163 -15 -3 -17 13 -18 185 -1 103 -2 208 -4 233
-2 25 -1 54 2 64 5 18 7 18 25 -7 19 -26 22 -27 89 -21z"/>
<path d="M1744 1829 c-3 -5 -2 -14 2 -20 4 -6 10 -25 15 -43 4 -17 49 -150 99
-296 50 -146 112 -326 136 -401 l46 -137 49 -6 c67 -9 77 0 42 38 -30 33 -73
92 -73 100 0 3 -11 29 -24 58 -13 29 -32 78 -41 108 -20 62 -27 82 -45 125 -7
17 -16 44 -20 60 -5 17 -24 75 -43 130 -19 55 -40 120 -46 145 -7 25 -19 60
-27 78 -8 18 -14 39 -14 46 0 16 -48 28 -56 15z"/>
<path d="M2378 1635 c-6 -6 0 -66 7 -73 3 -3 5 13 5 36 0 42 -2 47 -12 37z"/>
<path d="M286 1568 c-3 -10 -9 -26 -12 -35 -7 -19 -19 -75 -33 -153 -4 -25
-13 -58 -20 -73 -13 -34 -15 -94 -2 -101 5 -4 12 12 16 33 4 25 11 38 19 35 8
-3 12 18 14 78 1 46 8 112 17 147 15 58 15 109 1 69z"/>
<path d="M2262 1385 c0 -16 2 -22 5 -12 2 9 2 23 0 30 -3 6 -5 -1 -5 -18z"/>
<path d="M2353 1355 c0 -22 2 -30 4 -17 2 12 2 30 0 40 -3 9 -5 -1 -4 -23z"/>
<path d="M2317 1250 c-5 -22 -11 -28 -22 -23 -14 5 -16 -2 -14 -48 1 -30 -3
-65 -9 -79 -5 -14 -15 -52 -20 -85 -6 -33 -13 -73 -16 -90 -4 -16 7 8 23 55
17 47 30 95 31 108 0 12 5 22 10 22 6 0 10 13 10 29 0 16 7 45 15 64 17 40 20
77 6 77 -5 0 -11 -13 -14 -30z"/>
<path d="M282 1170 c0 -19 2 -27 5 -17 2 9 2 25 0 35 -3 9 -5 1 -5 -18z"/>
<path d="M184 1096 c-3 -19 -1 -43 5 -53 8 -14 10 -8 11 35 0 60 -6 67 -16 18z"/>
<path d="M180 866 c0 -9 5 -16 10 -16 6 0 10 4 10 9 0 6 -4 13 -10 16 -5 3
-10 -1 -10 -9z"/>
<path d="M701 862 c-6 -11 -11 -32 -11 -46 0 -16 -6 -26 -15 -26 -10 0 -15 10
-15 28 0 31 -19 64 -26 46 -3 -6 -11 -20 -18 -30 -14 -18 -15 -18 -27 9 -19
43 -34 27 -34 -38 0 -59 17 -85 30 -46 8 26 32 27 40 2 7 -24 40 -33 71 -19
17 8 30 8 47 0 48 -23 106 3 87 39 -6 10 -10 33 -10 53 0 40 -12 52 -31 30
-10 -12 -10 -22 -1 -46 11 -30 7 -58 -9 -58 -10 0 -39 53 -39 73 0 7 -6 22
-14 32 -13 18 -14 18 -25 -3z"/>
<path d="M1587 862 c-10 -10 -17 -26 -17 -35 0 -9 -7 -17 -16 -17 -11 0 -15 8
-12 28 3 31 -18 37 -35 10 -8 -12 -7 -24 3 -43 10 -18 11 -28 3 -36 -16 -16
-43 39 -36 75 5 23 3 27 -13 24 -15 -3 -19 -12 -19 -50 0 -76 -19 -72 -45 10
-7 23 -19 42 -25 42 -15 0 -33 -40 -41 -92 -7 -39 -6 -41 17 -35 13 3 42 2 64
-3 25 -6 44 -5 52 1 8 7 19 7 33 -1 17 -9 25 -8 40 5 17 16 20 15 48 -5 l30
-22 34 26 35 26 21 -25 c19 -21 26 -24 43 -14 11 6 27 8 34 5 8 -3 17 -1 20 3
2 5 32 7 66 6 58 -3 61 -2 56 19 -11 44 -35 100 -45 104 -6 2 -21 -19 -33 -47
-12 -28 -25 -51 -30 -51 -4 0 -9 21 -11 47 -3 46 -4 47 -43 56 -34 7 -42 5
-57 -13 -20 -25 -24 -25 -55 0 -32 25 -45 25 -66 2z m57 -49 c7 -18 -10 -43
-29 -43 -18 0 -27 28 -15 50 11 21 35 17 44 -7z m120 21 c21 -8 21 -53 0 -61
-18 -7 -45 6 -51 24 -2 6 3 18 12 27 19 18 18 18 39 10z"/>
<path d="M851 856 c-8 -9 -8 -21 0 -45 8 -22 8 -35 1 -44 -15 -18 2 -44 20
-31 13 11 77 11 136 1 29 -5 34 -3 43 21 l10 27 21 -28 c11 -15 24 -25 29 -21
12 7 11 121 -1 129 -6 3 -13 -1 -16 -9 -8 -21 -31 -20 -42 0 -15 26 -33 6 -30
-33 4 -52 -15 -51 -36 2 -21 50 -43 58 -51 20 -3 -14 -8 -37 -11 -52 l-6 -28
-18 23 c-14 16 -17 32 -13 53 4 22 2 29 -10 29 -8 0 -20 -6 -26 -14z"/>
<path d="M1207 864 c-4 -4 -7 -18 -7 -30 0 -13 -4 -26 -10 -29 -12 -8 -13 -62
-2 -69 5 -3 25 -3 45 1 30 5 37 10 37 29 0 13 -6 27 -14 31 -8 4 -16 21 -18
37 -3 29 -18 43 -31 30z"/>
<path d="M1940 856 c0 -8 5 -18 10 -21 6 -3 10 -26 10 -50 0 -45 13 -67 24
-39 3 9 6 33 6 55 0 28 4 39 15 39 22 0 38 -36 25 -59 -5 -11 -10 -24 -10 -29
0 -19 33 -22 57 -7 19 13 22 19 13 30 -6 8 -10 31 -8 52 l3 38 -72 3 c-59 2
-73 0 -73 -12z"/>
<path d="M2115 857 c-17 -14 -17 -15 1 -45 17 -30 17 -32 1 -44 -15 -11 -16
-16 -5 -31 13 -17 15 -17 37 7 20 22 23 30 14 49 -6 13 -9 35 -6 50 6 31 -11
36 -42 14z"/>
<path d="M960 456 c0 -9 30 -14 35 -6 4 6 -3 10 -14 10 -12 0 -21 -2 -21 -4z"/>
<path d="M1060 420 c0 -5 15 -10 33 -10 24 0 28 3 17 10 -20 13 -50 13 -50 0z"/>
<path d="M1151 391 c-11 -7 -11 -9 0 -14 11 -3 8 -10 -8 -26 -28 -26 -29 -33
-5 -24 16 6 16 5 1 -13 -9 -10 -19 -27 -23 -38 -4 -11 -12 -16 -21 -12 -9 3
-15 0 -15 -9 0 -8 -8 -15 -17 -15 -14 0 -15 -2 -4 -9 9 -6 10 -11 2 -15 -6 -4
-9 -11 -6 -16 7 -11 -58 -51 -85 -53 -11 -1 -20 -4 -20 -8 0 -12 44 -17 169
-18 122 -1 126 -1 188 31 34 18 63 38 63 45 0 6 7 13 17 15 11 2 17 16 20 44
3 36 0 43 -34 71 -74 59 -181 90 -222 64z m159 -201 c0 -5 -2 -10 -4 -10 -3 0
-8 5 -11 10 -3 6 -1 10 4 10 6 0 11 -4 11 -10z"/>
<path d="M800 161 c0 -10 57 -8 67 3 3 3 -10 6 -30 6 -20 0 -37 -4 -37 -9z"/>
</g>
</svg>
